<mxfile host="app.diagrams.net" modified="2024-01-06T14:11:34.996Z" agent="Mozilla/5.0 (Windows NT 10.0; Win64; x64) AppleWebKit/537.36 (KHTML, like Gecko) Chrome/120.0.0.0 Safari/537.36" etag="pT0s9WV3KbUert6enZhg" version="22.1.17" type="github" pages="3">
  <diagram name="Page Header Footer" id="TlIG9F3hVXA-1vJpqdxD">
    <mxGraphModel dx="2390" dy="1363" grid="1" gridSize="10" guides="1" tooltips="1" connect="1" arrows="1" fold="1" page="1" pageScale="1" pageWidth="1654" pageHeight="1169" math="0" shadow="0">
      <root>
        <mxCell id="0" />
        <mxCell id="1" parent="0" />
        <mxCell id="g1DixWQlH8tpJ4wupb5L-1" value="" style="strokeWidth=1;shadow=0;dashed=0;align=center;html=1;shape=mxgraph.mockup.containers.browserWindow;rSize=0;strokeColor=#666666;strokeColor2=#008cff;strokeColor3=#c4c4c4;mainText=,;recursiveResize=0;" vertex="1" parent="1">
          <mxGeometry x="30" y="80" width="1520" height="1030" as="geometry" />
        </mxCell>
        <mxCell id="g1DixWQlH8tpJ4wupb5L-2" value="Sky&#39;s P2P" style="strokeWidth=1;shadow=0;dashed=0;align=center;html=1;shape=mxgraph.mockup.containers.anchor;fontSize=17;fontColor=#666666;align=left;whiteSpace=wrap;" vertex="1" parent="g1DixWQlH8tpJ4wupb5L-1">
          <mxGeometry x="60" y="12" width="110" height="26" as="geometry" />
        </mxCell>
        <mxCell id="g1DixWQlH8tpJ4wupb5L-3" value="http://localhost:3000/" style="strokeWidth=1;shadow=0;dashed=0;align=center;html=1;shape=mxgraph.mockup.containers.anchor;rSize=0;fontSize=17;fontColor=#666666;align=left;" vertex="1" parent="g1DixWQlH8tpJ4wupb5L-1">
          <mxGeometry x="130" y="60" width="250" height="26" as="geometry" />
        </mxCell>
        <mxCell id="g1DixWQlH8tpJ4wupb5L-4" value="" style="strokeWidth=1;shadow=0;dashed=0;align=center;html=1;shape=mxgraph.mockup.rrect;rSize=10;fillColor=#ffffff;strokeColor=#666666;" vertex="1" parent="g1DixWQlH8tpJ4wupb5L-1">
          <mxGeometry x="510" y="140" width="500" height="50" as="geometry" />
        </mxCell>
        <mxCell id="g1DixWQlH8tpJ4wupb5L-5" value="About Us" style="strokeColor=inherit;fillColor=inherit;gradientColor=inherit;strokeWidth=1;shadow=0;dashed=0;align=center;html=1;shape=mxgraph.mockup.rrect;rSize=0;fontSize=17;fontColor=#666666;fontStyle=1;resizeHeight=1;whiteSpace=wrap;" vertex="1" parent="g1DixWQlH8tpJ4wupb5L-4">
          <mxGeometry width="125" height="50" relative="1" as="geometry">
            <mxPoint x="125" as="offset" />
          </mxGeometry>
        </mxCell>
        <mxCell id="g1DixWQlH8tpJ4wupb5L-6" value="Blockchain +" style="strokeColor=inherit;fillColor=inherit;gradientColor=inherit;strokeWidth=1;shadow=0;dashed=0;align=center;html=1;shape=mxgraph.mockup.rrect;rSize=0;fontSize=17;fontColor=#666666;fontStyle=1;resizeHeight=1;whiteSpace=wrap;" vertex="1" parent="g1DixWQlH8tpJ4wupb5L-4">
          <mxGeometry width="125" height="50" relative="1" as="geometry">
            <mxPoint x="250" as="offset" />
          </mxGeometry>
        </mxCell>
        <mxCell id="g1DixWQlH8tpJ4wupb5L-7" value="Support" style="strokeColor=inherit;fillColor=inherit;gradientColor=inherit;strokeWidth=1;shadow=0;dashed=0;align=center;html=1;shape=mxgraph.mockup.rightButton;rSize=10;fontSize=17;fontColor=#666666;fontStyle=1;resizeHeight=1;whiteSpace=wrap;" vertex="1" parent="g1DixWQlH8tpJ4wupb5L-4">
          <mxGeometry x="1" width="125" height="50" relative="1" as="geometry">
            <mxPoint x="-125" as="offset" />
          </mxGeometry>
        </mxCell>
        <mxCell id="g1DixWQlH8tpJ4wupb5L-8" value="Home" style="strokeWidth=1;shadow=0;dashed=0;align=center;html=1;shape=mxgraph.mockup.leftButton;rSize=10;fontSize=17;fontColor=#ffffff;fontStyle=1;fillColor=#008cff;strokeColor=#008cff;resizeHeight=1;whiteSpace=wrap;" vertex="1" parent="g1DixWQlH8tpJ4wupb5L-4">
          <mxGeometry width="125" height="50" relative="1" as="geometry" />
        </mxCell>
        <mxCell id="g1DixWQlH8tpJ4wupb5L-9" value="Login" style="strokeWidth=1;shadow=0;dashed=0;align=center;html=1;shape=mxgraph.mockup.buttons.button;strokeColor=#666666;fontColor=#ffffff;mainText=;buttonStyle=round;fontSize=17;fontStyle=1;fillColor=#008cff;whiteSpace=wrap;" vertex="1" parent="g1DixWQlH8tpJ4wupb5L-1">
          <mxGeometry x="1310" y="140" width="90" height="50" as="geometry" />
        </mxCell>
        <mxCell id="g1DixWQlH8tpJ4wupb5L-10" value="Register" style="strokeWidth=1;shadow=0;dashed=0;align=center;html=1;shape=mxgraph.mockup.buttons.button;strokeColor=#666666;fontColor=#ffffff;mainText=;buttonStyle=round;fontSize=17;fontStyle=1;fillColor=#008cff;whiteSpace=wrap;" vertex="1" parent="g1DixWQlH8tpJ4wupb5L-1">
          <mxGeometry x="1410" y="140" width="90" height="50" as="geometry" />
        </mxCell>
        <mxCell id="g1DixWQlH8tpJ4wupb5L-11" value="" style="verticalLabelPosition=bottom;shadow=0;dashed=0;align=center;html=1;verticalAlign=top;strokeWidth=1;shape=mxgraph.mockup.markup.line;strokeColor=#999999;" vertex="1" parent="g1DixWQlH8tpJ4wupb5L-1">
          <mxGeometry y="200" width="1520" height="20" as="geometry" />
        </mxCell>
        <mxCell id="g1DixWQlH8tpJ4wupb5L-18" value="" style="strokeWidth=1;shadow=0;dashed=0;align=center;html=1;shape=mxgraph.mockup.forms.rrect;rSize=0;strokeColor=#999999;fillColor=#ffffff;fontSize=20;" vertex="1" parent="g1DixWQlH8tpJ4wupb5L-1">
          <mxGeometry x="760" y="190" width="130" height="120" as="geometry" />
        </mxCell>
        <mxCell id="g1DixWQlH8tpJ4wupb5L-20" value="Contracts" style="strokeWidth=1;shadow=0;dashed=0;align=center;html=1;shape=mxgraph.mockup.forms.anchor;fontSize=20;align=left;spacingLeft=5;resizeWidth=1;whiteSpace=wrap;fillColor=#dae8fc;strokeColor=#6c8ebf;" vertex="1" parent="g1DixWQlH8tpJ4wupb5L-18">
          <mxGeometry width="130" height="30" relative="1" as="geometry">
            <mxPoint as="offset" />
          </mxGeometry>
        </mxCell>
        <mxCell id="g1DixWQlH8tpJ4wupb5L-21" value="Transactions" style="strokeWidth=1;shadow=0;dashed=0;align=center;html=1;shape=mxgraph.mockup.forms.anchor;fontSize=20;fontColor=#666666;align=left;spacingLeft=5;resizeWidth=1;whiteSpace=wrap;" vertex="1" parent="g1DixWQlH8tpJ4wupb5L-18">
          <mxGeometry width="130" height="30" relative="1" as="geometry">
            <mxPoint y="30" as="offset" />
          </mxGeometry>
        </mxCell>
        <mxCell id="g1DixWQlH8tpJ4wupb5L-22" value="Payments" style="strokeWidth=1;shadow=0;dashed=0;align=center;html=1;shape=mxgraph.mockup.forms.rrect;rSize=0;fontSize=20;fontColor=#666666;align=left;spacingLeft=5;fillColor=#ddeeff;strokeColor=none;resizeWidth=1;whiteSpace=wrap;" vertex="1" parent="g1DixWQlH8tpJ4wupb5L-18">
          <mxGeometry width="130" height="30" relative="1" as="geometry">
            <mxPoint y="60" as="offset" />
          </mxGeometry>
        </mxCell>
        <mxCell id="g1DixWQlH8tpJ4wupb5L-23" value="Credit Scores" style="strokeWidth=1;shadow=0;dashed=0;align=center;html=1;shape=mxgraph.mockup.forms.anchor;fontSize=20;fontColor=#666666;align=left;spacingLeft=5;resizeWidth=1;whiteSpace=wrap;" vertex="1" parent="g1DixWQlH8tpJ4wupb5L-18">
          <mxGeometry width="130" height="30" relative="1" as="geometry">
            <mxPoint y="90" as="offset" />
          </mxGeometry>
        </mxCell>
        <mxCell id="g1DixWQlH8tpJ4wupb5L-24" value="Sky&#39;s P2P" style="text;strokeColor=none;fillColor=none;html=1;fontSize=24;fontStyle=1;verticalAlign=middle;align=center;" vertex="1" parent="g1DixWQlH8tpJ4wupb5L-1">
          <mxGeometry x="100" y="130" width="150" height="60" as="geometry" />
        </mxCell>
        <mxCell id="g1DixWQlH8tpJ4wupb5L-25" value="" style="icon;html=1;image=img/clipart/Gear_128x128.png" vertex="1" parent="g1DixWQlH8tpJ4wupb5L-1">
          <mxGeometry x="40" y="130" width="60" height="60" as="geometry" />
        </mxCell>
        <mxCell id="g1DixWQlH8tpJ4wupb5L-26" value="" style="verticalLabelPosition=bottom;shadow=0;dashed=0;align=center;html=1;verticalAlign=top;strokeWidth=1;shape=mxgraph.mockup.markup.line;strokeColor=#999999;" vertex="1" parent="g1DixWQlH8tpJ4wupb5L-1">
          <mxGeometry y="680" width="1520" height="20" as="geometry" />
        </mxCell>
        <mxCell id="g1DixWQlH8tpJ4wupb5L-27" value="&lt;h1 style=&quot;font-size: 28px;&quot;&gt;&lt;font style=&quot;font-size: 28px;&quot;&gt;Sky&#39;s P2P&lt;/font&gt;&lt;/h1&gt;&lt;p style=&quot;&quot;&gt;&lt;font style=&quot;font-size: 20px;&quot;&gt;Lorem ipsum dolor sit amet, consectetur adipisicing elit, sed do eiusmod tempor incididunt ut labore et dolore magna aliqua.&lt;/font&gt;&lt;/p&gt;" style="text;html=1;strokeColor=none;fillColor=none;spacing=5;spacingTop=-20;whiteSpace=wrap;overflow=hidden;rounded=0;" vertex="1" parent="g1DixWQlH8tpJ4wupb5L-1">
          <mxGeometry x="60" y="710" width="390" height="220" as="geometry" />
        </mxCell>
        <mxCell id="g1DixWQlH8tpJ4wupb5L-28" value="&lt;font style=&quot;font-size: 20px;&quot;&gt;Neque porro quisquam est, qui dolorem ipsum quia dolor sit amet, consectetur, adipisci velit, sed quia non numquam eius modi tempora incidunt ut labore et dolore magnam aliquam quaerat&amp;nbsp;&lt;/font&gt;" style="text;spacingTop=-5;whiteSpace=wrap;html=1;align=left;fontSize=12;fontFamily=Helvetica;fillColor=none;strokeColor=none;" vertex="1" parent="g1DixWQlH8tpJ4wupb5L-1">
          <mxGeometry x="60" y="870" width="360" height="130" as="geometry" />
        </mxCell>
        <mxCell id="g1DixWQlH8tpJ4wupb5L-29" value="&lt;font style=&quot;font-size: 20px;&quot;&gt;Lorem ipsum dolor sit amet, consectetur adipisicing elit, sed do eiusmod tempor incididunt ut labore et dolore magna aliqua. Ut enim ad minim veniam, quis nostrud exercitation ullamco laboris nisi ut aliquip ex ea commodo consequat. Duis aute irure dolor in reprehenderit in voluptate velit esse cillum dolore eu fugiat nulla pariatur. Excepteur sint occaecat cupidatat non proident, sunt in culpa qui officia deserunt mollit anim id est laborum.&lt;br style=&quot;border-color: var(--border-color);&quot;&gt;Sed ut perspiciatis unde omnis iste natus error sit voluptatem accusantium doloremque.&lt;/font&gt;" style="text;spacingTop=-5;whiteSpace=wrap;html=1;align=left;fontSize=12;fontFamily=Helvetica;fillColor=none;strokeColor=none;" vertex="1" parent="g1DixWQlH8tpJ4wupb5L-1">
          <mxGeometry x="520" y="710" width="420" height="320" as="geometry" />
        </mxCell>
        <mxCell id="g1DixWQlH8tpJ4wupb5L-30" value="Facebook" style="shape=rectangle;strokeColor=none;fillColor=none;linkText=;fontSize=17;fontColor=#0000ff;fontStyle=4;html=1;align=center;" vertex="1" parent="g1DixWQlH8tpJ4wupb5L-1">
          <mxGeometry x="60" y="990" width="90" height="30" as="geometry" />
        </mxCell>
        <mxCell id="g1DixWQlH8tpJ4wupb5L-31" value="Instagram" style="shape=rectangle;strokeColor=none;fillColor=none;linkText=;fontSize=17;fontColor=#0000ff;fontStyle=4;html=1;align=center;" vertex="1" parent="g1DixWQlH8tpJ4wupb5L-1">
          <mxGeometry x="150" y="990" width="90" height="30" as="geometry" />
        </mxCell>
        <mxCell id="g1DixWQlH8tpJ4wupb5L-32" value="Twitter" style="shape=rectangle;strokeColor=none;fillColor=none;linkText=;fontSize=17;fontColor=#0000ff;fontStyle=4;html=1;align=center;" vertex="1" parent="g1DixWQlH8tpJ4wupb5L-1">
          <mxGeometry x="240" y="990" width="90" height="30" as="geometry" />
        </mxCell>
        <mxCell id="g1DixWQlH8tpJ4wupb5L-33" value="&lt;i&gt;e.g. John Doe&lt;/i&gt;" style="strokeWidth=1;shadow=0;dashed=0;align=center;html=1;shape=mxgraph.mockup.text.textBox;fontColor=#666666;align=left;fontSize=17;spacingLeft=4;spacingTop=-3;whiteSpace=wrap;strokeColor=#666666;mainText=" vertex="1" parent="g1DixWQlH8tpJ4wupb5L-1">
          <mxGeometry x="1080" y="740" width="340" height="50" as="geometry" />
        </mxCell>
        <mxCell id="g1DixWQlH8tpJ4wupb5L-34" value="&lt;i&gt;e.g. yourname@email.com&lt;/i&gt;" style="strokeWidth=1;shadow=0;dashed=0;align=center;html=1;shape=mxgraph.mockup.text.textBox;fontColor=#666666;align=left;fontSize=17;spacingLeft=4;spacingTop=-3;whiteSpace=wrap;strokeColor=#666666;mainText=" vertex="1" parent="g1DixWQlH8tpJ4wupb5L-1">
          <mxGeometry x="1080" y="840" width="340" height="50" as="geometry" />
        </mxCell>
        <mxCell id="g1DixWQlH8tpJ4wupb5L-35" value="Submit" style="strokeWidth=1;shadow=0;dashed=0;align=center;html=1;shape=mxgraph.mockup.buttons.button;strokeColor=#666666;fontColor=#ffffff;mainText=;buttonStyle=round;fontSize=17;fontStyle=1;fillColor=#008cff;whiteSpace=wrap;" vertex="1" parent="g1DixWQlH8tpJ4wupb5L-1">
          <mxGeometry x="1080" y="910" width="150" height="50" as="geometry" />
        </mxCell>
        <mxCell id="g1DixWQlH8tpJ4wupb5L-36" value="Name" style="text;html=1;strokeColor=none;fillColor=none;align=left;verticalAlign=middle;whiteSpace=wrap;rounded=0;fontSize=20;fontStyle=1" vertex="1" parent="g1DixWQlH8tpJ4wupb5L-1">
          <mxGeometry x="1080" y="690" width="340" height="50" as="geometry" />
        </mxCell>
        <mxCell id="g1DixWQlH8tpJ4wupb5L-37" value="Email" style="text;html=1;strokeColor=none;fillColor=none;align=left;verticalAlign=middle;whiteSpace=wrap;rounded=0;fontSize=20;fontStyle=1" vertex="1" parent="g1DixWQlH8tpJ4wupb5L-1">
          <mxGeometry x="1080" y="790" width="340" height="50" as="geometry" />
        </mxCell>
      </root>
    </mxGraphModel>
  </diagram>
  <diagram name="Page Form" id="BFYAZ8zWNFGKSaAlseWT">
    <mxGraphModel dx="2390" dy="1363" grid="1" gridSize="10" guides="1" tooltips="1" connect="1" arrows="1" fold="1" page="1" pageScale="1" pageWidth="1654" pageHeight="1169" math="0" shadow="0">
      <root>
        <mxCell id="q5unrc14rzJKTLwRhcmr-0" />
        <mxCell id="q5unrc14rzJKTLwRhcmr-1" parent="q5unrc14rzJKTLwRhcmr-0" />
        <mxCell id="q5unrc14rzJKTLwRhcmr-2" value="" style="strokeWidth=1;shadow=0;dashed=0;align=center;html=1;shape=mxgraph.mockup.containers.browserWindow;rSize=0;strokeColor=#666666;strokeColor2=#008cff;strokeColor3=#c4c4c4;mainText=,;recursiveResize=0;" vertex="1" parent="q5unrc14rzJKTLwRhcmr-1">
          <mxGeometry x="30" y="80" width="1520" height="1030" as="geometry" />
        </mxCell>
        <mxCell id="q5unrc14rzJKTLwRhcmr-3" value="Sky&#39;s P2P" style="strokeWidth=1;shadow=0;dashed=0;align=center;html=1;shape=mxgraph.mockup.containers.anchor;fontSize=17;fontColor=#666666;align=left;whiteSpace=wrap;" vertex="1" parent="q5unrc14rzJKTLwRhcmr-2">
          <mxGeometry x="60" y="12" width="110" height="26" as="geometry" />
        </mxCell>
        <mxCell id="q5unrc14rzJKTLwRhcmr-4" value="http://localhost:3000/" style="strokeWidth=1;shadow=0;dashed=0;align=center;html=1;shape=mxgraph.mockup.containers.anchor;rSize=0;fontSize=17;fontColor=#666666;align=left;" vertex="1" parent="q5unrc14rzJKTLwRhcmr-2">
          <mxGeometry x="130" y="60" width="250" height="26" as="geometry" />
        </mxCell>
        <mxCell id="q5unrc14rzJKTLwRhcmr-5" value="" style="strokeWidth=1;shadow=0;dashed=0;align=center;html=1;shape=mxgraph.mockup.rrect;rSize=10;fillColor=#ffffff;strokeColor=#666666;" vertex="1" parent="q5unrc14rzJKTLwRhcmr-2">
          <mxGeometry x="510" y="140" width="500" height="50" as="geometry" />
        </mxCell>
        <mxCell id="q5unrc14rzJKTLwRhcmr-6" value="About Us" style="strokeColor=inherit;fillColor=inherit;gradientColor=inherit;strokeWidth=1;shadow=0;dashed=0;align=center;html=1;shape=mxgraph.mockup.rrect;rSize=0;fontSize=17;fontColor=#666666;fontStyle=1;resizeHeight=1;whiteSpace=wrap;" vertex="1" parent="q5unrc14rzJKTLwRhcmr-5">
          <mxGeometry width="125" height="50" relative="1" as="geometry">
            <mxPoint x="125" as="offset" />
          </mxGeometry>
        </mxCell>
        <mxCell id="q5unrc14rzJKTLwRhcmr-7" value="Blockchain +" style="strokeColor=inherit;fillColor=inherit;gradientColor=inherit;strokeWidth=1;shadow=0;dashed=0;align=center;html=1;shape=mxgraph.mockup.rrect;rSize=0;fontSize=17;fontColor=#666666;fontStyle=1;resizeHeight=1;whiteSpace=wrap;" vertex="1" parent="q5unrc14rzJKTLwRhcmr-5">
          <mxGeometry width="125" height="50" relative="1" as="geometry">
            <mxPoint x="250" as="offset" />
          </mxGeometry>
        </mxCell>
        <mxCell id="q5unrc14rzJKTLwRhcmr-8" value="Support" style="strokeColor=inherit;fillColor=inherit;gradientColor=inherit;strokeWidth=1;shadow=0;dashed=0;align=center;html=1;shape=mxgraph.mockup.rightButton;rSize=10;fontSize=17;fontColor=#666666;fontStyle=1;resizeHeight=1;whiteSpace=wrap;" vertex="1" parent="q5unrc14rzJKTLwRhcmr-5">
          <mxGeometry x="1" width="125" height="50" relative="1" as="geometry">
            <mxPoint x="-125" as="offset" />
          </mxGeometry>
        </mxCell>
        <mxCell id="q5unrc14rzJKTLwRhcmr-9" value="Home" style="strokeWidth=1;shadow=0;dashed=0;align=center;html=1;shape=mxgraph.mockup.leftButton;rSize=10;fontSize=17;fontColor=#ffffff;fontStyle=1;fillColor=#008cff;strokeColor=#008cff;resizeHeight=1;whiteSpace=wrap;" vertex="1" parent="q5unrc14rzJKTLwRhcmr-5">
          <mxGeometry width="125" height="50" relative="1" as="geometry" />
        </mxCell>
        <mxCell id="q5unrc14rzJKTLwRhcmr-10" value="Login" style="strokeWidth=1;shadow=0;dashed=0;align=center;html=1;shape=mxgraph.mockup.buttons.button;strokeColor=#666666;fontColor=#ffffff;mainText=;buttonStyle=round;fontSize=17;fontStyle=1;fillColor=#008cff;whiteSpace=wrap;" vertex="1" parent="q5unrc14rzJKTLwRhcmr-2">
          <mxGeometry x="1310" y="140" width="90" height="50" as="geometry" />
        </mxCell>
        <mxCell id="q5unrc14rzJKTLwRhcmr-11" value="Register" style="strokeWidth=1;shadow=0;dashed=0;align=center;html=1;shape=mxgraph.mockup.buttons.button;strokeColor=#666666;fontColor=#ffffff;mainText=;buttonStyle=round;fontSize=17;fontStyle=1;fillColor=#008cff;whiteSpace=wrap;" vertex="1" parent="q5unrc14rzJKTLwRhcmr-2">
          <mxGeometry x="1410" y="140" width="90" height="50" as="geometry" />
        </mxCell>
        <mxCell id="q5unrc14rzJKTLwRhcmr-12" value="" style="verticalLabelPosition=bottom;shadow=0;dashed=0;align=center;html=1;verticalAlign=top;strokeWidth=1;shape=mxgraph.mockup.markup.line;strokeColor=#999999;" vertex="1" parent="q5unrc14rzJKTLwRhcmr-2">
          <mxGeometry y="200" width="1520" height="20" as="geometry" />
        </mxCell>
        <mxCell id="q5unrc14rzJKTLwRhcmr-18" value="Sky&#39;s P2P" style="text;strokeColor=none;fillColor=none;html=1;fontSize=24;fontStyle=1;verticalAlign=middle;align=center;" vertex="1" parent="q5unrc14rzJKTLwRhcmr-2">
          <mxGeometry x="100" y="130" width="150" height="60" as="geometry" />
        </mxCell>
        <mxCell id="q5unrc14rzJKTLwRhcmr-19" value="" style="icon;html=1;image=img/clipart/Gear_128x128.png" vertex="1" parent="q5unrc14rzJKTLwRhcmr-2">
          <mxGeometry x="40" y="130" width="60" height="60" as="geometry" />
        </mxCell>
        <mxCell id="q5unrc14rzJKTLwRhcmr-20" value="" style="verticalLabelPosition=bottom;shadow=0;dashed=0;align=center;html=1;verticalAlign=top;strokeWidth=1;shape=mxgraph.mockup.markup.line;strokeColor=#999999;" vertex="1" parent="q5unrc14rzJKTLwRhcmr-2">
          <mxGeometry y="680" width="1520" height="20" as="geometry" />
        </mxCell>
        <mxCell id="q5unrc14rzJKTLwRhcmr-21" value="&lt;h1 style=&quot;font-size: 28px;&quot;&gt;&lt;font style=&quot;font-size: 28px;&quot;&gt;Sky&#39;s P2P&lt;/font&gt;&lt;/h1&gt;&lt;p style=&quot;&quot;&gt;&lt;font style=&quot;font-size: 20px;&quot;&gt;Lorem ipsum dolor sit amet, consectetur adipisicing elit, sed do eiusmod tempor incididunt ut labore et dolore magna aliqua.&lt;/font&gt;&lt;/p&gt;" style="text;html=1;strokeColor=none;fillColor=none;spacing=5;spacingTop=-20;whiteSpace=wrap;overflow=hidden;rounded=0;" vertex="1" parent="q5unrc14rzJKTLwRhcmr-2">
          <mxGeometry x="60" y="710" width="390" height="220" as="geometry" />
        </mxCell>
        <mxCell id="q5unrc14rzJKTLwRhcmr-22" value="&lt;font style=&quot;font-size: 20px;&quot;&gt;Neque porro quisquam est, qui dolorem ipsum quia dolor sit amet, consectetur, adipisci velit, sed quia non numquam eius modi tempora incidunt ut labore et dolore magnam aliquam quaerat&amp;nbsp;&lt;/font&gt;" style="text;spacingTop=-5;whiteSpace=wrap;html=1;align=left;fontSize=12;fontFamily=Helvetica;fillColor=none;strokeColor=none;" vertex="1" parent="q5unrc14rzJKTLwRhcmr-2">
          <mxGeometry x="60" y="870" width="360" height="130" as="geometry" />
        </mxCell>
        <mxCell id="q5unrc14rzJKTLwRhcmr-23" value="&lt;font style=&quot;font-size: 20px;&quot;&gt;Lorem ipsum dolor sit amet, consectetur adipisicing elit, sed do eiusmod tempor incididunt ut labore et dolore magna aliqua. Ut enim ad minim veniam, quis nostrud exercitation ullamco laboris nisi ut aliquip ex ea commodo consequat. Duis aute irure dolor in reprehenderit in voluptate velit esse cillum dolore eu fugiat nulla pariatur. Excepteur sint occaecat cupidatat non proident, sunt in culpa qui officia deserunt mollit anim id est laborum.&lt;br style=&quot;border-color: var(--border-color);&quot;&gt;Sed ut perspiciatis unde omnis iste natus error sit voluptatem accusantium doloremque.&lt;/font&gt;" style="text;spacingTop=-5;whiteSpace=wrap;html=1;align=left;fontSize=12;fontFamily=Helvetica;fillColor=none;strokeColor=none;" vertex="1" parent="q5unrc14rzJKTLwRhcmr-2">
          <mxGeometry x="520" y="710" width="420" height="320" as="geometry" />
        </mxCell>
        <mxCell id="q5unrc14rzJKTLwRhcmr-24" value="Facebook" style="shape=rectangle;strokeColor=none;fillColor=none;linkText=;fontSize=17;fontColor=#0000ff;fontStyle=4;html=1;align=center;" vertex="1" parent="q5unrc14rzJKTLwRhcmr-2">
          <mxGeometry x="60" y="990" width="90" height="30" as="geometry" />
        </mxCell>
        <mxCell id="q5unrc14rzJKTLwRhcmr-25" value="Instagram" style="shape=rectangle;strokeColor=none;fillColor=none;linkText=;fontSize=17;fontColor=#0000ff;fontStyle=4;html=1;align=center;" vertex="1" parent="q5unrc14rzJKTLwRhcmr-2">
          <mxGeometry x="150" y="990" width="90" height="30" as="geometry" />
        </mxCell>
        <mxCell id="q5unrc14rzJKTLwRhcmr-26" value="Twitter" style="shape=rectangle;strokeColor=none;fillColor=none;linkText=;fontSize=17;fontColor=#0000ff;fontStyle=4;html=1;align=center;" vertex="1" parent="q5unrc14rzJKTLwRhcmr-2">
          <mxGeometry x="240" y="990" width="90" height="30" as="geometry" />
        </mxCell>
        <mxCell id="q5unrc14rzJKTLwRhcmr-27" value="&lt;i&gt;e.g. John Doe&lt;/i&gt;" style="strokeWidth=1;shadow=0;dashed=0;align=center;html=1;shape=mxgraph.mockup.text.textBox;fontColor=#666666;align=left;fontSize=17;spacingLeft=4;spacingTop=-3;whiteSpace=wrap;strokeColor=#666666;mainText=" vertex="1" parent="q5unrc14rzJKTLwRhcmr-2">
          <mxGeometry x="1080" y="740" width="340" height="50" as="geometry" />
        </mxCell>
        <mxCell id="q5unrc14rzJKTLwRhcmr-28" value="&lt;i&gt;e.g. johndoe@email.com&lt;/i&gt;" style="strokeWidth=1;shadow=0;dashed=0;align=center;html=1;shape=mxgraph.mockup.text.textBox;fontColor=#666666;align=left;fontSize=17;spacingLeft=4;spacingTop=-3;whiteSpace=wrap;strokeColor=#666666;mainText=" vertex="1" parent="q5unrc14rzJKTLwRhcmr-2">
          <mxGeometry x="1080" y="840" width="340" height="50" as="geometry" />
        </mxCell>
        <mxCell id="q5unrc14rzJKTLwRhcmr-29" value="Submit" style="strokeWidth=1;shadow=0;dashed=0;align=center;html=1;shape=mxgraph.mockup.buttons.button;strokeColor=#666666;fontColor=#ffffff;mainText=;buttonStyle=round;fontSize=17;fontStyle=1;fillColor=#008cff;whiteSpace=wrap;" vertex="1" parent="q5unrc14rzJKTLwRhcmr-2">
          <mxGeometry x="1080" y="910" width="150" height="50" as="geometry" />
        </mxCell>
        <mxCell id="q5unrc14rzJKTLwRhcmr-30" value="Name" style="text;html=1;strokeColor=none;fillColor=none;align=left;verticalAlign=middle;whiteSpace=wrap;rounded=0;fontSize=20;fontStyle=1" vertex="1" parent="q5unrc14rzJKTLwRhcmr-2">
          <mxGeometry x="1080" y="690" width="340" height="50" as="geometry" />
        </mxCell>
        <mxCell id="q5unrc14rzJKTLwRhcmr-31" value="Email" style="text;html=1;strokeColor=none;fillColor=none;align=left;verticalAlign=middle;whiteSpace=wrap;rounded=0;fontSize=20;fontStyle=1" vertex="1" parent="q5unrc14rzJKTLwRhcmr-2">
          <mxGeometry x="1080" y="790" width="340" height="50" as="geometry" />
        </mxCell>
        <mxCell id="gFw8011mv8JglC3NJKSB-25" value="" style="strokeWidth=1;shadow=0;dashed=0;align=center;html=1;shape=mxgraph.mockup.forms.rrect;rSize=0;strokeColor=#999999;fillColor=#ffffff;" vertex="1" parent="q5unrc14rzJKTLwRhcmr-2">
          <mxGeometry x="560" y="210" width="367.5" height="480" as="geometry" />
        </mxCell>
        <mxCell id="gFw8011mv8JglC3NJKSB-26" value="Register" style="strokeWidth=1;shadow=0;dashed=0;align=center;html=1;shape=mxgraph.mockup.forms.anchor;fontSize=24;fontColor=#666666;align=left;resizeWidth=1;spacingLeft=0;fontStyle=1" vertex="1" parent="gFw8011mv8JglC3NJKSB-25">
          <mxGeometry width="183.75" height="20" relative="1" as="geometry">
            <mxPoint x="10" y="10" as="offset" />
          </mxGeometry>
        </mxCell>
        <mxCell id="gFw8011mv8JglC3NJKSB-27" value="" style="shape=line;strokeColor=#ddeeff;strokeWidth=2;html=1;resizeWidth=1;" vertex="1" parent="gFw8011mv8JglC3NJKSB-25">
          <mxGeometry width="330.75" height="10" relative="1" as="geometry">
            <mxPoint x="10" y="40" as="offset" />
          </mxGeometry>
        </mxCell>
        <mxCell id="gFw8011mv8JglC3NJKSB-28" value="First Name:" style="strokeWidth=1;shadow=0;dashed=0;align=center;html=1;shape=mxgraph.mockup.forms.anchor;fontSize=20;fontColor=#666666;align=left;resizeWidth=1;spacingLeft=0;" vertex="1" parent="gFw8011mv8JglC3NJKSB-25">
          <mxGeometry width="350" height="30" relative="1" as="geometry">
            <mxPoint x="10" y="50" as="offset" />
          </mxGeometry>
        </mxCell>
        <mxCell id="gFw8011mv8JglC3NJKSB-29" value="john" style="strokeWidth=1;shadow=0;dashed=0;align=center;html=1;shape=mxgraph.mockup.forms.rrect;rSize=0;strokeColor=#999999;fontColor=#666666;align=left;spacingLeft=5;resizeWidth=1;fontSize=20;" vertex="1" parent="gFw8011mv8JglC3NJKSB-25">
          <mxGeometry width="350" height="30" relative="1" as="geometry">
            <mxPoint x="10" y="80" as="offset" />
          </mxGeometry>
        </mxCell>
        <mxCell id="gFw8011mv8JglC3NJKSB-30" value="Confirm Password:" style="strokeWidth=1;shadow=0;dashed=0;align=center;html=1;shape=mxgraph.mockup.forms.anchor;fontSize=20;fontColor=#666666;align=left;resizeWidth=1;spacingLeft=0;" vertex="1" parent="gFw8011mv8JglC3NJKSB-25">
          <mxGeometry width="350" height="30" relative="1" as="geometry">
            <mxPoint x="8" y="380" as="offset" />
          </mxGeometry>
        </mxCell>
        <mxCell id="gFw8011mv8JglC3NJKSB-31" value="********" style="strokeWidth=1;shadow=0;dashed=0;align=center;html=1;shape=mxgraph.mockup.forms.rrect;rSize=0;strokeColor=#999999;fontColor=#666666;align=left;spacingLeft=5;resizeWidth=1;fontSize=20;" vertex="1" parent="gFw8011mv8JglC3NJKSB-25">
          <mxGeometry width="350" height="25" relative="1" as="geometry">
            <mxPoint x="8" y="410" as="offset" />
          </mxGeometry>
        </mxCell>
        <mxCell id="gFw8011mv8JglC3NJKSB-32" value="Register" style="strokeWidth=1;shadow=0;dashed=0;align=center;html=1;shape=mxgraph.mockup.forms.rrect;rSize=5;strokeColor=none;fontColor=#ffffff;fillColor=#66bbff;fontSize=16;fontStyle=1;" vertex="1" parent="gFw8011mv8JglC3NJKSB-25">
          <mxGeometry y="1" width="80" height="30" relative="1" as="geometry">
            <mxPoint x="144" y="-40" as="offset" />
          </mxGeometry>
        </mxCell>
        <mxCell id="gFw8011mv8JglC3NJKSB-37" value="Password:" style="strokeWidth=1;shadow=0;dashed=0;align=center;html=1;shape=mxgraph.mockup.forms.anchor;fontSize=20;fontColor=#666666;align=left;resizeWidth=1;spacingLeft=0;" vertex="1" parent="gFw8011mv8JglC3NJKSB-25">
          <mxGeometry x="8.75" y="320" width="350" height="30.65" as="geometry" />
        </mxCell>
        <mxCell id="gFw8011mv8JglC3NJKSB-38" value="********" style="strokeWidth=1;shadow=0;dashed=0;align=center;html=1;shape=mxgraph.mockup.forms.rrect;rSize=0;strokeColor=#999999;fontColor=#666666;align=left;spacingLeft=5;resizeWidth=1;fontSize=20;" vertex="1" parent="gFw8011mv8JglC3NJKSB-25">
          <mxGeometry x="8.749999999999773" y="350.65246753246754" width="350" height="28.571428571428573" as="geometry" />
        </mxCell>
        <mxCell id="gFw8011mv8JglC3NJKSB-39" value="Last Name:" style="strokeWidth=1;shadow=0;dashed=0;align=center;html=1;shape=mxgraph.mockup.forms.anchor;fontSize=20;fontColor=#666666;align=left;resizeWidth=1;spacingLeft=0;" vertex="1" parent="gFw8011mv8JglC3NJKSB-25">
          <mxGeometry x="8.75" y="110.00428571428571" width="350" height="34.285714285714285" as="geometry" />
        </mxCell>
        <mxCell id="gFw8011mv8JglC3NJKSB-40" value="doe" style="strokeWidth=1;shadow=0;dashed=0;align=center;html=1;shape=mxgraph.mockup.forms.rrect;rSize=0;strokeColor=#999999;fontColor=#666666;align=left;spacingLeft=5;resizeWidth=1;fontSize=20;" vertex="1" parent="gFw8011mv8JglC3NJKSB-25">
          <mxGeometry x="8.75" y="144.29" width="350" height="34.285714285714285" as="geometry" />
        </mxCell>
        <mxCell id="gFw8011mv8JglC3NJKSB-44" value="01-01-1999" style="strokeWidth=1;shadow=0;dashed=0;align=center;html=1;shape=mxgraph.mockup.forms.rrect;rSize=0;strokeColor=#999999;fontColor=#666666;align=left;spacingLeft=5;resizeWidth=1;fontSize=20;" vertex="1" parent="gFw8011mv8JglC3NJKSB-25">
          <mxGeometry x="7.5" y="276.75272727272727" width="350" height="32.72727272727273" as="geometry" />
        </mxCell>
        <mxCell id="gFw8011mv8JglC3NJKSB-43" value="Date Of Birth" style="strokeWidth=1;shadow=0;dashed=0;align=center;html=1;shape=mxgraph.mockup.forms.anchor;fontSize=20;fontColor=#666666;align=left;resizeWidth=1;spacingLeft=0;" vertex="1" parent="gFw8011mv8JglC3NJKSB-25">
          <mxGeometry x="7.5" y="244.02545454545455" width="350" height="32.72727272727273" as="geometry" />
        </mxCell>
        <mxCell id="gFw8011mv8JglC3NJKSB-42" value="johndoe@email.com" style="strokeWidth=1;shadow=0;dashed=0;align=center;html=1;shape=mxgraph.mockup.forms.rrect;rSize=0;strokeColor=#999999;fontColor=#666666;align=left;spacingLeft=5;resizeWidth=1;fontSize=20;" vertex="1" parent="gFw8011mv8JglC3NJKSB-25">
          <mxGeometry x="8.75" y="211.29818181818183" width="350" height="32.72727272727273" as="geometry" />
        </mxCell>
        <mxCell id="gFw8011mv8JglC3NJKSB-41" value="Email:&amp;nbsp;" style="strokeWidth=1;shadow=0;dashed=0;align=center;html=1;shape=mxgraph.mockup.forms.anchor;fontSize=20;fontColor=#666666;align=left;resizeWidth=1;spacingLeft=0;" vertex="1" parent="gFw8011mv8JglC3NJKSB-25">
          <mxGeometry x="8.75" y="178.5709090909091" width="350" height="32.72727272727273" as="geometry" />
        </mxCell>
        <mxCell id="gFw8011mv8JglC3NJKSB-9" value="Registration Successful !" style="strokeWidth=1;shadow=0;dashed=0;align=center;html=1;shape=mxgraph.mockup.containers.rrect;rSize=0;strokeColor=#666666;fontColor=#666666;fontSize=17;verticalAlign=top;whiteSpace=wrap;fillColor=#ffffff;spacingTop=32;" vertex="1" parent="q5unrc14rzJKTLwRhcmr-2">
          <mxGeometry x="850" y="100" width="355" height="150" as="geometry" />
        </mxCell>
        <mxCell id="gFw8011mv8JglC3NJKSB-10" value="Welcome!" style="strokeWidth=1;shadow=0;dashed=0;align=center;html=1;shape=mxgraph.mockup.containers.rrect;rSize=0;fontSize=17;fontColor=#666666;strokeColor=#666666;align=left;spacingLeft=8;fillColor=#ffffff;resizeWidth=1;whiteSpace=wrap;" vertex="1" parent="gFw8011mv8JglC3NJKSB-9">
          <mxGeometry width="355" height="30" relative="1" as="geometry" />
        </mxCell>
        <mxCell id="gFw8011mv8JglC3NJKSB-11" value="" style="shape=ellipse;strokeColor=#008cff;resizable=0;fillColor=none;html=1;" vertex="1" parent="gFw8011mv8JglC3NJKSB-10">
          <mxGeometry x="1" y="0.5" width="20" height="20" relative="1" as="geometry">
            <mxPoint x="-25" y="-10" as="offset" />
          </mxGeometry>
        </mxCell>
        <mxCell id="gFw8011mv8JglC3NJKSB-12" value="OK" style="strokeWidth=1;shadow=0;dashed=0;align=center;html=1;shape=mxgraph.mockup.containers.rrect;rSize=0;fontSize=16;fontColor=#666666;strokeColor=#c4c4c4;resizable=0;whiteSpace=wrap;fillColor=#ffffff;" vertex="1" parent="gFw8011mv8JglC3NJKSB-9">
          <mxGeometry x="0.5" y="1" width="120" height="25" relative="1" as="geometry">
            <mxPoint x="-60" y="-33" as="offset" />
          </mxGeometry>
        </mxCell>
      </root>
    </mxGraphModel>
  </diagram>
  <diagram name="Page Main Menu " id="9gjnMCaIsEpBFbUsR34d">
    <mxGraphModel dx="2868" dy="1636" grid="1" gridSize="10" guides="1" tooltips="1" connect="1" arrows="1" fold="1" page="1" pageScale="1" pageWidth="1654" pageHeight="1169" math="0" shadow="0">
      <root>
        <mxCell id="OP110KsNz9hGvYLdwsgw-0" />
        <mxCell id="OP110KsNz9hGvYLdwsgw-1" parent="OP110KsNz9hGvYLdwsgw-0" />
        <mxCell id="OP110KsNz9hGvYLdwsgw-2" value="" style="strokeWidth=1;shadow=0;dashed=0;align=center;html=1;shape=mxgraph.mockup.containers.browserWindow;rSize=0;strokeColor=#666666;strokeColor2=#008cff;strokeColor3=#c4c4c4;mainText=,;recursiveResize=0;" vertex="1" parent="OP110KsNz9hGvYLdwsgw-1">
          <mxGeometry x="30" y="80" width="1520" height="1030" as="geometry" />
        </mxCell>
        <mxCell id="OP110KsNz9hGvYLdwsgw-3" value="Sky&#39;s P2P" style="strokeWidth=1;shadow=0;dashed=0;align=center;html=1;shape=mxgraph.mockup.containers.anchor;fontSize=17;fontColor=#666666;align=left;whiteSpace=wrap;" vertex="1" parent="OP110KsNz9hGvYLdwsgw-2">
          <mxGeometry x="60" y="12" width="110" height="26" as="geometry" />
        </mxCell>
        <mxCell id="OP110KsNz9hGvYLdwsgw-4" value="http://localhost:3000/" style="strokeWidth=1;shadow=0;dashed=0;align=center;html=1;shape=mxgraph.mockup.containers.anchor;rSize=0;fontSize=17;fontColor=#666666;align=left;" vertex="1" parent="OP110KsNz9hGvYLdwsgw-2">
          <mxGeometry x="130" y="60" width="250" height="26" as="geometry" />
        </mxCell>
        <mxCell id="OP110KsNz9hGvYLdwsgw-5" value="" style="strokeWidth=1;shadow=0;dashed=0;align=center;html=1;shape=mxgraph.mockup.rrect;rSize=10;fillColor=#ffffff;strokeColor=#666666;" vertex="1" parent="OP110KsNz9hGvYLdwsgw-2">
          <mxGeometry x="380" y="140" width="730" height="50" as="geometry" />
        </mxCell>
        <mxCell id="OP110KsNz9hGvYLdwsgw-6" value="About Us" style="strokeColor=inherit;fillColor=inherit;gradientColor=inherit;strokeWidth=1;shadow=0;dashed=0;align=center;html=1;shape=mxgraph.mockup.rrect;rSize=0;fontSize=17;fontColor=#666666;fontStyle=1;resizeHeight=1;whiteSpace=wrap;" vertex="1" parent="OP110KsNz9hGvYLdwsgw-5">
          <mxGeometry width="125" height="50" relative="1" as="geometry">
            <mxPoint x="125" as="offset" />
          </mxGeometry>
        </mxCell>
        <mxCell id="OP110KsNz9hGvYLdwsgw-7" value="Blockchain +" style="strokeColor=inherit;fillColor=inherit;gradientColor=inherit;strokeWidth=1;shadow=0;dashed=0;align=center;html=1;shape=mxgraph.mockup.rrect;rSize=0;fontSize=17;fontColor=#666666;fontStyle=1;resizeHeight=1;whiteSpace=wrap;" vertex="1" parent="OP110KsNz9hGvYLdwsgw-5">
          <mxGeometry width="125" height="50" relative="1" as="geometry">
            <mxPoint x="250" as="offset" />
          </mxGeometry>
        </mxCell>
        <mxCell id="OP110KsNz9hGvYLdwsgw-8" value="Support" style="strokeColor=inherit;fillColor=inherit;gradientColor=inherit;strokeWidth=1;shadow=0;dashed=0;align=center;html=1;shape=mxgraph.mockup.rightButton;rSize=10;fontSize=17;fontColor=#666666;fontStyle=1;resizeHeight=1;whiteSpace=wrap;" vertex="1" parent="OP110KsNz9hGvYLdwsgw-5">
          <mxGeometry x="1" width="125" height="50" relative="1" as="geometry">
            <mxPoint x="-125" as="offset" />
          </mxGeometry>
        </mxCell>
        <mxCell id="OP110KsNz9hGvYLdwsgw-9" value="Home" style="strokeWidth=1;shadow=0;dashed=0;align=center;html=1;shape=mxgraph.mockup.leftButton;rSize=10;fontSize=17;fontColor=#ffffff;fontStyle=1;fillColor=#008cff;strokeColor=#008cff;resizeHeight=1;whiteSpace=wrap;" vertex="1" parent="OP110KsNz9hGvYLdwsgw-5">
          <mxGeometry width="125" height="50" relative="1" as="geometry" />
        </mxCell>
        <mxCell id="FNacNGQKeCd9Mdj8Xpe4-1" value="Contracts +" style="strokeColor=inherit;fillColor=inherit;gradientColor=inherit;strokeWidth=1;shadow=0;dashed=0;align=center;html=1;shape=mxgraph.mockup.rrect;rSize=0;fontSize=17;fontColor=#666666;fontStyle=1;resizeHeight=1;whiteSpace=wrap;" vertex="1" parent="OP110KsNz9hGvYLdwsgw-5">
          <mxGeometry x="374.4" width="120" height="50" as="geometry" />
        </mxCell>
        <mxCell id="FNacNGQKeCd9Mdj8Xpe4-2" value="Profile" style="strokeColor=inherit;fillColor=inherit;gradientColor=inherit;strokeWidth=1;shadow=0;dashed=0;align=center;html=1;shape=mxgraph.mockup.rrect;rSize=0;fontSize=17;fontColor=#666666;fontStyle=1;resizeHeight=1;whiteSpace=wrap;" vertex="1" parent="OP110KsNz9hGvYLdwsgw-5">
          <mxGeometry x="494" width="119.05" height="50" as="geometry" />
        </mxCell>
        <mxCell id="OP110KsNz9hGvYLdwsgw-11" value="Logout" style="strokeWidth=1;shadow=0;dashed=0;align=center;html=1;shape=mxgraph.mockup.buttons.button;strokeColor=#666666;fontColor=#ffffff;mainText=;buttonStyle=round;fontSize=17;fontStyle=1;fillColor=#008cff;whiteSpace=wrap;" vertex="1" parent="OP110KsNz9hGvYLdwsgw-2">
          <mxGeometry x="1410" y="140" width="90" height="50" as="geometry" />
        </mxCell>
        <mxCell id="OP110KsNz9hGvYLdwsgw-12" value="" style="verticalLabelPosition=bottom;shadow=0;dashed=0;align=center;html=1;verticalAlign=top;strokeWidth=1;shape=mxgraph.mockup.markup.line;strokeColor=#999999;" vertex="1" parent="OP110KsNz9hGvYLdwsgw-2">
          <mxGeometry y="200" width="1520" height="20" as="geometry" />
        </mxCell>
        <mxCell id="OP110KsNz9hGvYLdwsgw-13" value="" style="strokeWidth=1;shadow=0;dashed=0;align=center;html=1;shape=mxgraph.mockup.forms.rrect;rSize=0;strokeColor=#999999;fillColor=#ffffff;fontSize=20;" vertex="1" parent="OP110KsNz9hGvYLdwsgw-2">
          <mxGeometry x="630" y="190" width="130" height="120" as="geometry" />
        </mxCell>
        <mxCell id="OP110KsNz9hGvYLdwsgw-14" value="Contracts" style="strokeWidth=1;shadow=0;dashed=0;align=center;html=1;shape=mxgraph.mockup.forms.anchor;fontSize=20;align=left;spacingLeft=5;resizeWidth=1;whiteSpace=wrap;fillColor=#dae8fc;strokeColor=#6c8ebf;" vertex="1" parent="OP110KsNz9hGvYLdwsgw-13">
          <mxGeometry width="130" height="30" relative="1" as="geometry">
            <mxPoint as="offset" />
          </mxGeometry>
        </mxCell>
        <mxCell id="OP110KsNz9hGvYLdwsgw-15" value="Transactions" style="strokeWidth=1;shadow=0;dashed=0;align=center;html=1;shape=mxgraph.mockup.forms.anchor;fontSize=20;fontColor=#666666;align=left;spacingLeft=5;resizeWidth=1;whiteSpace=wrap;" vertex="1" parent="OP110KsNz9hGvYLdwsgw-13">
          <mxGeometry width="130" height="30" relative="1" as="geometry">
            <mxPoint y="30" as="offset" />
          </mxGeometry>
        </mxCell>
        <mxCell id="OP110KsNz9hGvYLdwsgw-16" value="Payments" style="strokeWidth=1;shadow=0;dashed=0;align=center;html=1;shape=mxgraph.mockup.forms.rrect;rSize=0;fontSize=20;fontColor=#666666;align=left;spacingLeft=5;fillColor=#ddeeff;strokeColor=none;resizeWidth=1;whiteSpace=wrap;" vertex="1" parent="OP110KsNz9hGvYLdwsgw-13">
          <mxGeometry width="130" height="30" relative="1" as="geometry">
            <mxPoint y="60" as="offset" />
          </mxGeometry>
        </mxCell>
        <mxCell id="OP110KsNz9hGvYLdwsgw-17" value="Credit Scores" style="strokeWidth=1;shadow=0;dashed=0;align=center;html=1;shape=mxgraph.mockup.forms.anchor;fontSize=20;fontColor=#666666;align=left;spacingLeft=5;resizeWidth=1;whiteSpace=wrap;" vertex="1" parent="OP110KsNz9hGvYLdwsgw-13">
          <mxGeometry width="130" height="30" relative="1" as="geometry">
            <mxPoint y="90" as="offset" />
          </mxGeometry>
        </mxCell>
        <mxCell id="OP110KsNz9hGvYLdwsgw-18" value="Sky&#39;s P2P" style="text;strokeColor=none;fillColor=none;html=1;fontSize=24;fontStyle=1;verticalAlign=middle;align=center;" vertex="1" parent="OP110KsNz9hGvYLdwsgw-2">
          <mxGeometry x="100" y="130" width="150" height="60" as="geometry" />
        </mxCell>
        <mxCell id="OP110KsNz9hGvYLdwsgw-19" value="" style="icon;html=1;image=img/clipart/Gear_128x128.png" vertex="1" parent="OP110KsNz9hGvYLdwsgw-2">
          <mxGeometry x="40" y="130" width="60" height="60" as="geometry" />
        </mxCell>
        <mxCell id="OP110KsNz9hGvYLdwsgw-20" value="" style="verticalLabelPosition=bottom;shadow=0;dashed=0;align=center;html=1;verticalAlign=top;strokeWidth=1;shape=mxgraph.mockup.markup.line;strokeColor=#999999;" vertex="1" parent="OP110KsNz9hGvYLdwsgw-2">
          <mxGeometry y="680" width="1520" height="20" as="geometry" />
        </mxCell>
        <mxCell id="OP110KsNz9hGvYLdwsgw-21" value="&lt;h1 style=&quot;font-size: 28px;&quot;&gt;&lt;font style=&quot;font-size: 28px;&quot;&gt;Sky&#39;s P2P&lt;/font&gt;&lt;/h1&gt;&lt;p style=&quot;&quot;&gt;&lt;font style=&quot;font-size: 20px;&quot;&gt;Lorem ipsum dolor sit amet, consectetur adipisicing elit, sed do eiusmod tempor incididunt ut labore et dolore magna aliqua.&lt;/font&gt;&lt;/p&gt;" style="text;html=1;strokeColor=none;fillColor=none;spacing=5;spacingTop=-20;whiteSpace=wrap;overflow=hidden;rounded=0;" vertex="1" parent="OP110KsNz9hGvYLdwsgw-2">
          <mxGeometry x="60" y="710" width="390" height="220" as="geometry" />
        </mxCell>
        <mxCell id="OP110KsNz9hGvYLdwsgw-22" value="&lt;font style=&quot;font-size: 20px;&quot;&gt;Neque porro quisquam est, qui dolorem ipsum quia dolor sit amet, consectetur, adipisci velit, sed quia non numquam eius modi tempora incidunt ut labore et dolore magnam aliquam quaerat&amp;nbsp;&lt;/font&gt;" style="text;spacingTop=-5;whiteSpace=wrap;html=1;align=left;fontSize=12;fontFamily=Helvetica;fillColor=none;strokeColor=none;" vertex="1" parent="OP110KsNz9hGvYLdwsgw-2">
          <mxGeometry x="60" y="870" width="360" height="130" as="geometry" />
        </mxCell>
        <mxCell id="OP110KsNz9hGvYLdwsgw-23" value="&lt;font style=&quot;font-size: 20px;&quot;&gt;Lorem ipsum dolor sit amet, consectetur adipisicing elit, sed do eiusmod tempor incididunt ut labore et dolore magna aliqua. Ut enim ad minim veniam, quis nostrud exercitation ullamco laboris nisi ut aliquip ex ea commodo consequat. Duis aute irure dolor in reprehenderit in voluptate velit esse cillum dolore eu fugiat nulla pariatur. Excepteur sint occaecat cupidatat non proident, sunt in culpa qui officia deserunt mollit anim id est laborum.&lt;br style=&quot;border-color: var(--border-color);&quot;&gt;Sed ut perspiciatis unde omnis iste natus error sit voluptatem accusantium doloremque.&lt;/font&gt;" style="text;spacingTop=-5;whiteSpace=wrap;html=1;align=left;fontSize=12;fontFamily=Helvetica;fillColor=none;strokeColor=none;" vertex="1" parent="OP110KsNz9hGvYLdwsgw-2">
          <mxGeometry x="520" y="710" width="420" height="320" as="geometry" />
        </mxCell>
        <mxCell id="OP110KsNz9hGvYLdwsgw-24" value="Facebook" style="shape=rectangle;strokeColor=none;fillColor=none;linkText=;fontSize=17;fontColor=#0000ff;fontStyle=4;html=1;align=center;" vertex="1" parent="OP110KsNz9hGvYLdwsgw-2">
          <mxGeometry x="60" y="990" width="90" height="30" as="geometry" />
        </mxCell>
        <mxCell id="OP110KsNz9hGvYLdwsgw-25" value="Instagram" style="shape=rectangle;strokeColor=none;fillColor=none;linkText=;fontSize=17;fontColor=#0000ff;fontStyle=4;html=1;align=center;" vertex="1" parent="OP110KsNz9hGvYLdwsgw-2">
          <mxGeometry x="150" y="990" width="90" height="30" as="geometry" />
        </mxCell>
        <mxCell id="OP110KsNz9hGvYLdwsgw-26" value="Twitter" style="shape=rectangle;strokeColor=none;fillColor=none;linkText=;fontSize=17;fontColor=#0000ff;fontStyle=4;html=1;align=center;" vertex="1" parent="OP110KsNz9hGvYLdwsgw-2">
          <mxGeometry x="240" y="990" width="90" height="30" as="geometry" />
        </mxCell>
        <mxCell id="OP110KsNz9hGvYLdwsgw-27" value="&lt;i&gt;e.g. John Doe&lt;/i&gt;" style="strokeWidth=1;shadow=0;dashed=0;align=center;html=1;shape=mxgraph.mockup.text.textBox;fontColor=#666666;align=left;fontSize=17;spacingLeft=4;spacingTop=-3;whiteSpace=wrap;strokeColor=#666666;mainText=" vertex="1" parent="OP110KsNz9hGvYLdwsgw-2">
          <mxGeometry x="1080" y="740" width="340" height="50" as="geometry" />
        </mxCell>
        <mxCell id="OP110KsNz9hGvYLdwsgw-28" value="&lt;i&gt;e.g. yourname@email.com&lt;/i&gt;" style="strokeWidth=1;shadow=0;dashed=0;align=center;html=1;shape=mxgraph.mockup.text.textBox;fontColor=#666666;align=left;fontSize=17;spacingLeft=4;spacingTop=-3;whiteSpace=wrap;strokeColor=#666666;mainText=" vertex="1" parent="OP110KsNz9hGvYLdwsgw-2">
          <mxGeometry x="1080" y="840" width="340" height="50" as="geometry" />
        </mxCell>
        <mxCell id="OP110KsNz9hGvYLdwsgw-29" value="Submit" style="strokeWidth=1;shadow=0;dashed=0;align=center;html=1;shape=mxgraph.mockup.buttons.button;strokeColor=#666666;fontColor=#ffffff;mainText=;buttonStyle=round;fontSize=17;fontStyle=1;fillColor=#008cff;whiteSpace=wrap;" vertex="1" parent="OP110KsNz9hGvYLdwsgw-2">
          <mxGeometry x="1080" y="910" width="150" height="50" as="geometry" />
        </mxCell>
        <mxCell id="OP110KsNz9hGvYLdwsgw-30" value="Name" style="text;html=1;strokeColor=none;fillColor=none;align=left;verticalAlign=middle;whiteSpace=wrap;rounded=0;fontSize=20;fontStyle=1" vertex="1" parent="OP110KsNz9hGvYLdwsgw-2">
          <mxGeometry x="1080" y="690" width="340" height="50" as="geometry" />
        </mxCell>
        <mxCell id="OP110KsNz9hGvYLdwsgw-31" value="Email" style="text;html=1;strokeColor=none;fillColor=none;align=left;verticalAlign=middle;whiteSpace=wrap;rounded=0;fontSize=20;fontStyle=1" vertex="1" parent="OP110KsNz9hGvYLdwsgw-2">
          <mxGeometry x="1080" y="790" width="340" height="50" as="geometry" />
        </mxCell>
        <mxCell id="FNacNGQKeCd9Mdj8Xpe4-3" value="" style="strokeWidth=1;shadow=0;dashed=0;align=center;html=1;shape=mxgraph.mockup.forms.rrect;rSize=0;strokeColor=#999999;fillColor=#ffffff;fontSize=20;" vertex="1" parent="OP110KsNz9hGvYLdwsgw-2">
          <mxGeometry x="760" y="190" width="130" height="140" as="geometry" />
        </mxCell>
        <mxCell id="FNacNGQKeCd9Mdj8Xpe4-4" value="My Contracts" style="strokeWidth=1;shadow=0;dashed=0;align=center;html=1;shape=mxgraph.mockup.forms.anchor;fontSize=20;align=left;spacingLeft=5;resizeWidth=1;whiteSpace=wrap;fillColor=#dae8fc;strokeColor=#6c8ebf;" vertex="1" parent="FNacNGQKeCd9Mdj8Xpe4-3">
          <mxGeometry width="130" height="30" relative="1" as="geometry">
            <mxPoint y="50" as="offset" />
          </mxGeometry>
        </mxCell>
        <mxCell id="FNacNGQKeCd9Mdj8Xpe4-6" value="Contract Marketplace" style="strokeWidth=1;shadow=0;dashed=0;align=center;html=1;shape=mxgraph.mockup.forms.rrect;rSize=0;fontSize=20;fontColor=#666666;align=left;spacingLeft=5;fillColor=#ddeeff;strokeColor=none;resizeWidth=1;whiteSpace=wrap;" vertex="1" parent="FNacNGQKeCd9Mdj8Xpe4-3">
          <mxGeometry width="130" height="50" relative="1" as="geometry">
            <mxPoint as="offset" />
          </mxGeometry>
        </mxCell>
        <mxCell id="FNacNGQKeCd9Mdj8Xpe4-7" value="Create Contracts" style="strokeWidth=1;shadow=0;dashed=0;align=center;html=1;shape=mxgraph.mockup.forms.anchor;fontSize=20;fontColor=#666666;align=left;spacingLeft=5;resizeWidth=1;whiteSpace=wrap;" vertex="1" parent="FNacNGQKeCd9Mdj8Xpe4-3">
          <mxGeometry width="130" height="50" relative="1" as="geometry">
            <mxPoint y="80" as="offset" />
          </mxGeometry>
        </mxCell>
        <mxCell id="FNacNGQKeCd9Mdj8Xpe4-9" value="Credit Score" style="swimlane;whiteSpace=wrap;html=1;startSize=60;fontSize=20;" vertex="1" parent="OP110KsNz9hGvYLdwsgw-2">
          <mxGeometry x="442.5" y="380" width="200" height="200" as="geometry">
            <mxRectangle x="185" y="340" width="140" height="60" as="alternateBounds" />
          </mxGeometry>
        </mxCell>
        <mxCell id="FNacNGQKeCd9Mdj8Xpe4-11" value="&amp;lt;Unit Here&amp;gt;" style="text;html=1;strokeColor=none;fillColor=none;align=center;verticalAlign=middle;whiteSpace=wrap;rounded=0;fontSize=20;" vertex="1" parent="FNacNGQKeCd9Mdj8Xpe4-9">
          <mxGeometry y="100" width="200" height="30" as="geometry" />
        </mxCell>
        <mxCell id="FNacNGQKeCd9Mdj8Xpe4-10" value="Welcome, User!" style="text;html=1;strokeColor=none;fillColor=none;align=center;verticalAlign=middle;whiteSpace=wrap;rounded=0;fontSize=50;fontStyle=1" vertex="1" parent="OP110KsNz9hGvYLdwsgw-2">
          <mxGeometry x="180" y="220" width="450" height="100" as="geometry" />
        </mxCell>
        <mxCell id="FNacNGQKeCd9Mdj8Xpe4-12" value="Outstanding Payment" style="swimlane;whiteSpace=wrap;html=1;startSize=60;fontSize=20;" vertex="1" parent="OP110KsNz9hGvYLdwsgw-2">
          <mxGeometry x="662.5" y="380" width="200" height="200" as="geometry">
            <mxRectangle x="185" y="340" width="140" height="60" as="alternateBounds" />
          </mxGeometry>
        </mxCell>
        <mxCell id="FNacNGQKeCd9Mdj8Xpe4-13" value="&amp;lt;Unit Here&amp;gt;" style="text;html=1;strokeColor=none;fillColor=none;align=center;verticalAlign=middle;whiteSpace=wrap;rounded=0;fontSize=20;" vertex="1" parent="FNacNGQKeCd9Mdj8Xpe4-12">
          <mxGeometry y="100" width="200" height="30" as="geometry" />
        </mxCell>
        <mxCell id="FNacNGQKeCd9Mdj8Xpe4-14" value="Contracts Created" style="swimlane;whiteSpace=wrap;html=1;startSize=60;fontSize=20;" vertex="1" parent="OP110KsNz9hGvYLdwsgw-2">
          <mxGeometry x="877.5" y="380" width="200" height="200" as="geometry">
            <mxRectangle x="185" y="340" width="140" height="60" as="alternateBounds" />
          </mxGeometry>
        </mxCell>
        <mxCell id="FNacNGQKeCd9Mdj8Xpe4-15" value="&amp;lt;Unit Here&amp;gt;" style="text;html=1;strokeColor=none;fillColor=none;align=center;verticalAlign=middle;whiteSpace=wrap;rounded=0;fontSize=20;" vertex="1" parent="FNacNGQKeCd9Mdj8Xpe4-14">
          <mxGeometry y="100" width="200" height="30" as="geometry" />
        </mxCell>
      </root>
    </mxGraphModel>
  </diagram>
</mxfile>
